<mxfile host="app.diagrams.net" agent="Mozilla/5.0 (Windows NT 10.0; Win64; x64) AppleWebKit/537.36 (KHTML, like Gecko) Chrome/135.0.0.0 Safari/537.36" version="26.1.1">
  <diagram name="Page-1" id="CJFP9j9K7yKvtpVhEJYB">
    <mxGraphModel dx="996" dy="379" grid="1" gridSize="10" guides="1" tooltips="1" connect="1" arrows="1" fold="1" page="1" pageScale="1" pageWidth="850" pageHeight="1100" math="0" shadow="0">
      <root>
        <mxCell id="0" />
        <mxCell id="1" parent="0" />
        <mxCell id="4clGA9OW3IpD6KlwfDJ9-4" style="edgeStyle=orthogonalEdgeStyle;rounded=0;orthogonalLoop=1;jettySize=auto;html=1;" edge="1" parent="1">
          <mxGeometry relative="1" as="geometry">
            <mxPoint x="140" y="100" as="targetPoint" />
            <mxPoint x="140" y="100" as="sourcePoint" />
          </mxGeometry>
        </mxCell>
        <mxCell id="4clGA9OW3IpD6KlwfDJ9-7" value="" style="whiteSpace=wrap;html=1;aspect=fixed;fontStyle=1" vertex="1" parent="1">
          <mxGeometry x="70" y="15" width="670" height="670" as="geometry" />
        </mxCell>
        <mxCell id="4clGA9OW3IpD6KlwfDJ9-8" value="&lt;font style=&quot;font-size: 18px;&quot;&gt;Noqtet Hayah&lt;/font&gt;" style="text;html=1;align=center;verticalAlign=middle;whiteSpace=wrap;rounded=0;" vertex="1" parent="1">
          <mxGeometry x="348.5" y="30" width="113" height="40" as="geometry" />
        </mxCell>
        <mxCell id="4clGA9OW3IpD6KlwfDJ9-9" value="User" style="shape=umlActor;verticalLabelPosition=bottom;verticalAlign=top;html=1;outlineConnect=0;" vertex="1" parent="1">
          <mxGeometry x="20" y="400" width="30" height="60" as="geometry" />
        </mxCell>
        <mxCell id="4clGA9OW3IpD6KlwfDJ9-13" value="Hospital" style="shape=umlActor;verticalLabelPosition=bottom;verticalAlign=top;html=1;outlineConnect=0;" vertex="1" parent="1">
          <mxGeometry x="770" y="530" width="30" height="60" as="geometry" />
        </mxCell>
        <mxCell id="4clGA9OW3IpD6KlwfDJ9-14" value="Admin" style="shape=umlActor;verticalLabelPosition=bottom;verticalAlign=top;html=1;outlineConnect=0;" vertex="1" parent="1">
          <mxGeometry x="780" y="90" width="30" height="60" as="geometry" />
        </mxCell>
        <mxCell id="4clGA9OW3IpD6KlwfDJ9-20" style="edgeStyle=orthogonalEdgeStyle;rounded=0;orthogonalLoop=1;jettySize=auto;html=1;exitX=0.5;exitY=1;exitDx=0;exitDy=0;" edge="1" parent="1">
          <mxGeometry relative="1" as="geometry">
            <mxPoint x="195" y="150" as="sourcePoint" />
            <mxPoint x="195" y="150" as="targetPoint" />
          </mxGeometry>
        </mxCell>
        <mxCell id="4clGA9OW3IpD6KlwfDJ9-26" value="" style="html=1;labelBackgroundColor=#ffffff;startArrow=none;startFill=0;startSize=6;endArrow=classic;endFill=1;endSize=6;jettySize=auto;orthogonalLoop=1;strokeWidth=1;dashed=1;fontSize=14;rounded=0;exitX=0;exitY=0.5;exitDx=0;exitDy=0;entryX=1;entryY=1;entryDx=0;entryDy=0;" edge="1" parent="1" source="4clGA9OW3IpD6KlwfDJ9-62" target="4clGA9OW3IpD6KlwfDJ9-61">
          <mxGeometry width="60" height="60" relative="1" as="geometry">
            <mxPoint x="290" y="100" as="sourcePoint" />
            <mxPoint x="197" y="184" as="targetPoint" />
          </mxGeometry>
        </mxCell>
        <mxCell id="4clGA9OW3IpD6KlwfDJ9-28" value="&lt;font style=&quot;font-size: 8px;&quot;&gt;Extend&lt;/font&gt;" style="edgeLabel;html=1;align=center;verticalAlign=middle;resizable=0;points=[];" vertex="1" connectable="0" parent="4clGA9OW3IpD6KlwfDJ9-26">
          <mxGeometry x="-0.0549" y="-2" relative="1" as="geometry">
            <mxPoint as="offset" />
          </mxGeometry>
        </mxCell>
        <mxCell id="4clGA9OW3IpD6KlwfDJ9-33" value="" style="html=1;labelBackgroundColor=#ffffff;startArrow=none;startFill=0;startSize=6;endArrow=classic;endFill=1;endSize=6;jettySize=auto;orthogonalLoop=1;strokeWidth=1;dashed=1;fontSize=14;rounded=0;entryX=1;entryY=0.5;entryDx=0;entryDy=0;exitX=0;exitY=0.5;exitDx=0;exitDy=0;" edge="1" parent="1" source="4clGA9OW3IpD6KlwfDJ9-58" target="4clGA9OW3IpD6KlwfDJ9-48">
          <mxGeometry width="60" height="60" relative="1" as="geometry">
            <mxPoint x="290" y="165" as="sourcePoint" />
            <mxPoint x="240" y="135" as="targetPoint" />
          </mxGeometry>
        </mxCell>
        <mxCell id="4clGA9OW3IpD6KlwfDJ9-34" value="&lt;font style=&quot;font-size: 8px;&quot;&gt;Extend&lt;/font&gt;" style="edgeLabel;html=1;align=center;verticalAlign=middle;resizable=0;points=[];" vertex="1" connectable="0" parent="4clGA9OW3IpD6KlwfDJ9-33">
          <mxGeometry x="-0.0549" y="-2" relative="1" as="geometry">
            <mxPoint as="offset" />
          </mxGeometry>
        </mxCell>
        <mxCell id="4clGA9OW3IpD6KlwfDJ9-36" value="" style="html=1;labelBackgroundColor=#ffffff;startArrow=none;startFill=0;startSize=6;endArrow=classic;endFill=1;endSize=6;jettySize=auto;orthogonalLoop=1;strokeWidth=1;dashed=1;fontSize=14;rounded=0;exitX=0;exitY=0.5;exitDx=0;exitDy=0;entryX=1;entryY=0;entryDx=0;entryDy=0;" edge="1" parent="1" source="4clGA9OW3IpD6KlwfDJ9-56" target="4clGA9OW3IpD6KlwfDJ9-51">
          <mxGeometry width="60" height="60" relative="1" as="geometry">
            <mxPoint x="300" y="280" as="sourcePoint" />
            <mxPoint x="240" y="175" as="targetPoint" />
          </mxGeometry>
        </mxCell>
        <mxCell id="4clGA9OW3IpD6KlwfDJ9-37" value="&lt;font style=&quot;font-size: 8px;&quot;&gt;Extend&lt;/font&gt;" style="edgeLabel;html=1;align=center;verticalAlign=middle;resizable=0;points=[];" vertex="1" connectable="0" parent="4clGA9OW3IpD6KlwfDJ9-36">
          <mxGeometry x="-0.0549" y="-2" relative="1" as="geometry">
            <mxPoint as="offset" />
          </mxGeometry>
        </mxCell>
        <mxCell id="4clGA9OW3IpD6KlwfDJ9-38" value="" style="html=1;labelBackgroundColor=#ffffff;startArrow=none;startFill=0;startSize=6;endArrow=classic;endFill=1;endSize=6;jettySize=auto;orthogonalLoop=1;strokeWidth=1;dashed=1;fontSize=14;rounded=0;entryX=1;entryY=1;entryDx=0;entryDy=0;exitX=0;exitY=0.5;exitDx=0;exitDy=0;" edge="1" parent="1" source="4clGA9OW3IpD6KlwfDJ9-55" target="4clGA9OW3IpD6KlwfDJ9-51">
          <mxGeometry width="60" height="60" relative="1" as="geometry">
            <mxPoint x="304" y="361" as="sourcePoint" />
            <mxPoint x="240" y="175" as="targetPoint" />
          </mxGeometry>
        </mxCell>
        <mxCell id="4clGA9OW3IpD6KlwfDJ9-39" value="&lt;font style=&quot;font-size: 8px;&quot;&gt;Extend&lt;/font&gt;" style="edgeLabel;html=1;align=center;verticalAlign=middle;resizable=0;points=[];" vertex="1" connectable="0" parent="4clGA9OW3IpD6KlwfDJ9-38">
          <mxGeometry x="-0.0549" y="-2" relative="1" as="geometry">
            <mxPoint as="offset" />
          </mxGeometry>
        </mxCell>
        <mxCell id="4clGA9OW3IpD6KlwfDJ9-46" value="&lt;font style=&quot;font-size: 10px;&quot;&gt;View Blood Availability&lt;/font&gt;" style="ellipse;whiteSpace=wrap;html=1;" vertex="1" parent="1">
          <mxGeometry x="120" y="530" width="90" height="40" as="geometry" />
        </mxCell>
        <mxCell id="4clGA9OW3IpD6KlwfDJ9-47" value="Logout" style="ellipse;whiteSpace=wrap;html=1;" vertex="1" parent="1">
          <mxGeometry x="240" y="250" width="90" height="40" as="geometry" />
        </mxCell>
        <mxCell id="4clGA9OW3IpD6KlwfDJ9-48" value="Login" style="ellipse;whiteSpace=wrap;html=1;" vertex="1" parent="1">
          <mxGeometry x="100" y="160" width="90" height="40" as="geometry" />
        </mxCell>
        <mxCell id="4clGA9OW3IpD6KlwfDJ9-50" value="&lt;font style=&quot;font-size: 10px;&quot;&gt;Corporate Code&lt;/font&gt;" style="ellipse;whiteSpace=wrap;html=1;" vertex="1" parent="1">
          <mxGeometry x="310" y="80" width="90" height="40" as="geometry" />
        </mxCell>
        <mxCell id="4clGA9OW3IpD6KlwfDJ9-51" value="Subscribe" style="ellipse;whiteSpace=wrap;html=1;" vertex="1" parent="1">
          <mxGeometry x="120" y="410" width="90" height="40" as="geometry" />
        </mxCell>
        <mxCell id="4clGA9OW3IpD6KlwfDJ9-52" value="Show Discount" style="ellipse;whiteSpace=wrap;html=1;" vertex="1" parent="1">
          <mxGeometry x="330" y="410" width="90" height="40" as="geometry" />
        </mxCell>
        <mxCell id="4clGA9OW3IpD6KlwfDJ9-53" value="" style="html=1;labelBackgroundColor=#ffffff;startArrow=none;startFill=0;startSize=6;endArrow=classic;endFill=1;endSize=6;jettySize=auto;orthogonalLoop=1;strokeWidth=1;dashed=1;fontSize=14;rounded=0;entryX=1;entryY=0.5;entryDx=0;entryDy=0;exitX=0;exitY=0.5;exitDx=0;exitDy=0;" edge="1" parent="1" source="4clGA9OW3IpD6KlwfDJ9-52" target="4clGA9OW3IpD6KlwfDJ9-51">
          <mxGeometry width="60" height="60" relative="1" as="geometry">
            <mxPoint x="314" y="371" as="sourcePoint" />
            <mxPoint x="207" y="344" as="targetPoint" />
          </mxGeometry>
        </mxCell>
        <mxCell id="4clGA9OW3IpD6KlwfDJ9-54" value="&lt;font style=&quot;font-size: 8px;&quot;&gt;Extend&lt;/font&gt;" style="edgeLabel;html=1;align=center;verticalAlign=middle;resizable=0;points=[];" vertex="1" connectable="0" parent="4clGA9OW3IpD6KlwfDJ9-53">
          <mxGeometry x="-0.0549" y="-2" relative="1" as="geometry">
            <mxPoint as="offset" />
          </mxGeometry>
        </mxCell>
        <mxCell id="4clGA9OW3IpD6KlwfDJ9-55" value="Add Family" style="ellipse;whiteSpace=wrap;html=1;" vertex="1" parent="1">
          <mxGeometry x="250" y="440" width="90" height="40" as="geometry" />
        </mxCell>
        <mxCell id="4clGA9OW3IpD6KlwfDJ9-56" value="&lt;font style=&quot;font-size: 9px;&quot;&gt;Apply Promo Code&lt;/font&gt;" style="ellipse;whiteSpace=wrap;html=1;" vertex="1" parent="1">
          <mxGeometry x="250" y="380" width="90" height="40" as="geometry" />
        </mxCell>
        <mxCell id="4clGA9OW3IpD6KlwfDJ9-57" value="Donate Blood" style="ellipse;whiteSpace=wrap;html=1;" vertex="1" parent="1">
          <mxGeometry x="160" y="350" width="90" height="40" as="geometry" />
        </mxCell>
        <mxCell id="4clGA9OW3IpD6KlwfDJ9-58" value="&lt;font style=&quot;font-size: 10px;&quot;&gt;Invalid Message&lt;/font&gt;" style="ellipse;whiteSpace=wrap;html=1;" vertex="1" parent="1">
          <mxGeometry x="290" y="160" width="90" height="40" as="geometry" />
        </mxCell>
        <mxCell id="4clGA9OW3IpD6KlwfDJ9-59" value="" style="html=1;labelBackgroundColor=#ffffff;startArrow=none;startFill=0;startSize=6;endArrow=classic;endFill=1;endSize=6;jettySize=auto;orthogonalLoop=1;strokeWidth=1;dashed=1;fontSize=14;rounded=0;entryX=1;entryY=0.5;entryDx=0;entryDy=0;exitX=0;exitY=0.5;exitDx=0;exitDy=0;" edge="1" parent="1" source="4clGA9OW3IpD6KlwfDJ9-50" target="4clGA9OW3IpD6KlwfDJ9-61">
          <mxGeometry width="60" height="60" relative="1" as="geometry">
            <mxPoint x="280" y="430" as="sourcePoint" />
            <mxPoint x="220" y="430" as="targetPoint" />
          </mxGeometry>
        </mxCell>
        <mxCell id="4clGA9OW3IpD6KlwfDJ9-60" value="&lt;font style=&quot;font-size: 8px;&quot;&gt;Extend&lt;/font&gt;" style="edgeLabel;html=1;align=center;verticalAlign=middle;resizable=0;points=[];" vertex="1" connectable="0" parent="4clGA9OW3IpD6KlwfDJ9-59">
          <mxGeometry x="-0.0549" y="-2" relative="1" as="geometry">
            <mxPoint as="offset" />
          </mxGeometry>
        </mxCell>
        <mxCell id="4clGA9OW3IpD6KlwfDJ9-61" value="Register" style="ellipse;whiteSpace=wrap;html=1;" vertex="1" parent="1">
          <mxGeometry x="100" y="80" width="90" height="40" as="geometry" />
        </mxCell>
        <mxCell id="4clGA9OW3IpD6KlwfDJ9-62" value="&lt;font style=&quot;font-size: 10px;&quot;&gt;Invalid Message&lt;/font&gt;" style="ellipse;whiteSpace=wrap;html=1;" vertex="1" parent="1">
          <mxGeometry x="230" y="110" width="90" height="40" as="geometry" />
        </mxCell>
        <mxCell id="4clGA9OW3IpD6KlwfDJ9-63" value="&lt;font style=&quot;font-size: 10px;&quot;&gt;Verify Cardinality&lt;/font&gt;" style="ellipse;whiteSpace=wrap;html=1;" vertex="1" parent="1">
          <mxGeometry x="240" y="200" width="90" height="40" as="geometry" />
        </mxCell>
        <mxCell id="4clGA9OW3IpD6KlwfDJ9-65" value="&lt;font style=&quot;font-size: 9px;&quot;&gt;Include&lt;/font&gt;" style="html=1;labelBackgroundColor=#ffffff;startArrow=none;startFill=0;startSize=6;endArrow=classic;endFill=1;endSize=6;jettySize=auto;orthogonalLoop=1;strokeWidth=1;dashed=1;fontSize=14;rounded=0;exitX=0.5;exitY=1;exitDx=0;exitDy=0;" edge="1" parent="1" source="4clGA9OW3IpD6KlwfDJ9-48" target="4clGA9OW3IpD6KlwfDJ9-63">
          <mxGeometry width="60" height="60" relative="1" as="geometry">
            <mxPoint x="420" y="320" as="sourcePoint" />
            <mxPoint x="480" y="260" as="targetPoint" />
          </mxGeometry>
        </mxCell>
        <mxCell id="4clGA9OW3IpD6KlwfDJ9-66" value="View Home" style="ellipse;whiteSpace=wrap;html=1;" vertex="1" parent="1">
          <mxGeometry x="200" y="300" width="90" height="40" as="geometry" />
        </mxCell>
        <mxCell id="4clGA9OW3IpD6KlwfDJ9-67" value="Make Payment" style="ellipse;whiteSpace=wrap;html=1;" vertex="1" parent="1">
          <mxGeometry x="120" y="470" width="90" height="40" as="geometry" />
        </mxCell>
        <mxCell id="4clGA9OW3IpD6KlwfDJ9-68" value="" style="endArrow=none;html=1;rounded=0;exitX=1;exitY=0.3333333333333333;exitDx=0;exitDy=0;exitPerimeter=0;entryX=0;entryY=0.5;entryDx=0;entryDy=0;" edge="1" parent="1" source="4clGA9OW3IpD6KlwfDJ9-9" target="4clGA9OW3IpD6KlwfDJ9-61">
          <mxGeometry width="50" height="50" relative="1" as="geometry">
            <mxPoint x="430" y="280" as="sourcePoint" />
            <mxPoint x="480" y="230" as="targetPoint" />
          </mxGeometry>
        </mxCell>
        <mxCell id="4clGA9OW3IpD6KlwfDJ9-69" value="" style="endArrow=none;html=1;rounded=0;exitX=1;exitY=0.3333333333333333;exitDx=0;exitDy=0;exitPerimeter=0;entryX=0;entryY=0.5;entryDx=0;entryDy=0;" edge="1" parent="1" source="4clGA9OW3IpD6KlwfDJ9-9" target="4clGA9OW3IpD6KlwfDJ9-48">
          <mxGeometry width="50" height="50" relative="1" as="geometry">
            <mxPoint x="430" y="280" as="sourcePoint" />
            <mxPoint x="480" y="230" as="targetPoint" />
          </mxGeometry>
        </mxCell>
        <mxCell id="4clGA9OW3IpD6KlwfDJ9-70" value="" style="endArrow=none;html=1;rounded=0;exitX=0;exitY=0.5;exitDx=0;exitDy=0;entryX=1;entryY=0.3333333333333333;entryDx=0;entryDy=0;entryPerimeter=0;" edge="1" parent="1" source="4clGA9OW3IpD6KlwfDJ9-47" target="4clGA9OW3IpD6KlwfDJ9-9">
          <mxGeometry width="50" height="50" relative="1" as="geometry">
            <mxPoint x="430" y="280" as="sourcePoint" />
            <mxPoint x="50" y="300" as="targetPoint" />
          </mxGeometry>
        </mxCell>
        <mxCell id="4clGA9OW3IpD6KlwfDJ9-71" value="" style="endArrow=none;html=1;rounded=0;exitX=0;exitY=0.5;exitDx=0;exitDy=0;entryX=1;entryY=0.3333333333333333;entryDx=0;entryDy=0;entryPerimeter=0;" edge="1" parent="1" source="4clGA9OW3IpD6KlwfDJ9-66" target="4clGA9OW3IpD6KlwfDJ9-9">
          <mxGeometry width="50" height="50" relative="1" as="geometry">
            <mxPoint x="430" y="280" as="sourcePoint" />
            <mxPoint x="480" y="230" as="targetPoint" />
          </mxGeometry>
        </mxCell>
        <mxCell id="4clGA9OW3IpD6KlwfDJ9-72" value="" style="endArrow=none;html=1;rounded=0;exitX=0;exitY=0.5;exitDx=0;exitDy=0;entryX=1;entryY=0.3333333333333333;entryDx=0;entryDy=0;entryPerimeter=0;" edge="1" parent="1" source="4clGA9OW3IpD6KlwfDJ9-57" target="4clGA9OW3IpD6KlwfDJ9-9">
          <mxGeometry width="50" height="50" relative="1" as="geometry">
            <mxPoint x="430" y="280" as="sourcePoint" />
            <mxPoint x="480" y="230" as="targetPoint" />
          </mxGeometry>
        </mxCell>
        <mxCell id="4clGA9OW3IpD6KlwfDJ9-73" value="" style="endArrow=none;html=1;rounded=0;exitX=0;exitY=0.5;exitDx=0;exitDy=0;entryX=1;entryY=0.3333333333333333;entryDx=0;entryDy=0;entryPerimeter=0;" edge="1" parent="1" source="4clGA9OW3IpD6KlwfDJ9-51" target="4clGA9OW3IpD6KlwfDJ9-9">
          <mxGeometry width="50" height="50" relative="1" as="geometry">
            <mxPoint x="430" y="380" as="sourcePoint" />
            <mxPoint x="480" y="330" as="targetPoint" />
          </mxGeometry>
        </mxCell>
        <mxCell id="4clGA9OW3IpD6KlwfDJ9-74" value="" style="endArrow=none;html=1;rounded=0;exitX=0;exitY=0.5;exitDx=0;exitDy=0;entryX=1;entryY=0.3333333333333333;entryDx=0;entryDy=0;entryPerimeter=0;" edge="1" parent="1" source="4clGA9OW3IpD6KlwfDJ9-67" target="4clGA9OW3IpD6KlwfDJ9-9">
          <mxGeometry width="50" height="50" relative="1" as="geometry">
            <mxPoint x="430" y="410" as="sourcePoint" />
            <mxPoint x="480" y="360" as="targetPoint" />
          </mxGeometry>
        </mxCell>
        <mxCell id="4clGA9OW3IpD6KlwfDJ9-75" value="" style="endArrow=none;html=1;rounded=0;exitX=0;exitY=0.5;exitDx=0;exitDy=0;entryX=1;entryY=0.3333333333333333;entryDx=0;entryDy=0;entryPerimeter=0;" edge="1" parent="1" source="4clGA9OW3IpD6KlwfDJ9-46" target="4clGA9OW3IpD6KlwfDJ9-9">
          <mxGeometry width="50" height="50" relative="1" as="geometry">
            <mxPoint x="430" y="410" as="sourcePoint" />
            <mxPoint x="480" y="360" as="targetPoint" />
          </mxGeometry>
        </mxCell>
        <mxCell id="4clGA9OW3IpD6KlwfDJ9-76" value="Login" style="ellipse;whiteSpace=wrap;html=1;" vertex="1" parent="1">
          <mxGeometry x="620" y="480" width="90" height="40" as="geometry" />
        </mxCell>
        <mxCell id="4clGA9OW3IpD6KlwfDJ9-77" value="&lt;font style=&quot;font-size: 10px;&quot;&gt;Add Blood Stock&lt;/font&gt;" style="ellipse;whiteSpace=wrap;html=1;" vertex="1" parent="1">
          <mxGeometry x="620" y="530" width="90" height="40" as="geometry" />
        </mxCell>
        <mxCell id="4clGA9OW3IpD6KlwfDJ9-78" value="&lt;font style=&quot;font-size: 9px;&quot;&gt;View Donation Request&lt;/font&gt;" style="ellipse;whiteSpace=wrap;html=1;" vertex="1" parent="1">
          <mxGeometry x="620" y="580" width="90" height="40" as="geometry" />
        </mxCell>
        <mxCell id="4clGA9OW3IpD6KlwfDJ9-79" value="Accept" style="ellipse;whiteSpace=wrap;html=1;" vertex="1" parent="1">
          <mxGeometry x="500" y="545" width="90" height="40" as="geometry" />
        </mxCell>
        <mxCell id="4clGA9OW3IpD6KlwfDJ9-80" value="Reject" style="ellipse;whiteSpace=wrap;html=1;" vertex="1" parent="1">
          <mxGeometry x="440" y="580" width="90" height="40" as="geometry" />
        </mxCell>
        <mxCell id="4clGA9OW3IpD6KlwfDJ9-81" value="" style="html=1;labelBackgroundColor=#ffffff;startArrow=none;startFill=0;startSize=6;endArrow=classic;endFill=1;endSize=6;jettySize=auto;orthogonalLoop=1;strokeWidth=1;dashed=1;fontSize=14;rounded=0;entryX=0;entryY=0;entryDx=0;entryDy=0;exitX=1;exitY=0.5;exitDx=0;exitDy=0;" edge="1" parent="1" source="4clGA9OW3IpD6KlwfDJ9-79" target="4clGA9OW3IpD6KlwfDJ9-78">
          <mxGeometry width="60" height="60" relative="1" as="geometry">
            <mxPoint x="340" y="150" as="sourcePoint" />
            <mxPoint x="220" y="150" as="targetPoint" />
          </mxGeometry>
        </mxCell>
        <mxCell id="4clGA9OW3IpD6KlwfDJ9-82" value="&lt;font style=&quot;font-size: 8px;&quot;&gt;Extend&lt;/font&gt;" style="edgeLabel;html=1;align=center;verticalAlign=middle;resizable=0;points=[];" vertex="1" connectable="0" parent="4clGA9OW3IpD6KlwfDJ9-81">
          <mxGeometry x="-0.0549" y="-2" relative="1" as="geometry">
            <mxPoint as="offset" />
          </mxGeometry>
        </mxCell>
        <mxCell id="4clGA9OW3IpD6KlwfDJ9-84" value="" style="html=1;labelBackgroundColor=#ffffff;startArrow=none;startFill=0;startSize=6;endArrow=classic;endFill=1;endSize=6;jettySize=auto;orthogonalLoop=1;strokeWidth=1;dashed=1;fontSize=14;rounded=0;entryX=0;entryY=0.5;entryDx=0;entryDy=0;exitX=1;exitY=0.5;exitDx=0;exitDy=0;" edge="1" parent="1" source="4clGA9OW3IpD6KlwfDJ9-80" target="4clGA9OW3IpD6KlwfDJ9-78">
          <mxGeometry width="60" height="60" relative="1" as="geometry">
            <mxPoint x="350" y="160" as="sourcePoint" />
            <mxPoint x="230" y="160" as="targetPoint" />
          </mxGeometry>
        </mxCell>
        <mxCell id="4clGA9OW3IpD6KlwfDJ9-85" value="&lt;font style=&quot;font-size: 8px;&quot;&gt;Extend&lt;/font&gt;" style="edgeLabel;html=1;align=center;verticalAlign=middle;resizable=0;points=[];" vertex="1" connectable="0" parent="4clGA9OW3IpD6KlwfDJ9-84">
          <mxGeometry x="-0.0549" y="-2" relative="1" as="geometry">
            <mxPoint as="offset" />
          </mxGeometry>
        </mxCell>
        <mxCell id="4clGA9OW3IpD6KlwfDJ9-87" value="&lt;font style=&quot;font-size: 9px;&quot;&gt;Generate Promo Code&lt;/font&gt;" style="ellipse;whiteSpace=wrap;html=1;" vertex="1" parent="1">
          <mxGeometry x="440" y="480" width="90" height="40" as="geometry" />
        </mxCell>
        <mxCell id="4clGA9OW3IpD6KlwfDJ9-89" value="&lt;font style=&quot;font-size: 9px;&quot;&gt;Include&lt;/font&gt;" style="html=1;labelBackgroundColor=#ffffff;startArrow=none;startFill=0;startSize=6;endArrow=classic;endFill=1;endSize=6;jettySize=auto;orthogonalLoop=1;strokeWidth=1;dashed=1;fontSize=14;rounded=0;exitX=0.5;exitY=1;exitDx=0;exitDy=0;entryX=0.5;entryY=0;entryDx=0;entryDy=0;" edge="1" parent="1" source="4clGA9OW3IpD6KlwfDJ9-87" target="4clGA9OW3IpD6KlwfDJ9-79">
          <mxGeometry width="60" height="60" relative="1" as="geometry">
            <mxPoint x="207" y="224" as="sourcePoint" />
            <mxPoint x="260" y="235" as="targetPoint" />
          </mxGeometry>
        </mxCell>
        <mxCell id="4clGA9OW3IpD6KlwfDJ9-93" value="" style="endArrow=none;html=1;rounded=0;entryX=1;entryY=0.5;entryDx=0;entryDy=0;exitX=0;exitY=0.3333333333333333;exitDx=0;exitDy=0;exitPerimeter=0;" edge="1" parent="1" source="4clGA9OW3IpD6KlwfDJ9-13" target="4clGA9OW3IpD6KlwfDJ9-76">
          <mxGeometry width="50" height="50" relative="1" as="geometry">
            <mxPoint x="430" y="280" as="sourcePoint" />
            <mxPoint x="480" y="230" as="targetPoint" />
          </mxGeometry>
        </mxCell>
        <mxCell id="4clGA9OW3IpD6KlwfDJ9-94" value="" style="endArrow=none;html=1;rounded=0;entryX=1;entryY=0.5;entryDx=0;entryDy=0;exitX=0;exitY=0.3333333333333333;exitDx=0;exitDy=0;exitPerimeter=0;" edge="1" parent="1" source="4clGA9OW3IpD6KlwfDJ9-13" target="4clGA9OW3IpD6KlwfDJ9-77">
          <mxGeometry width="50" height="50" relative="1" as="geometry">
            <mxPoint x="430" y="280" as="sourcePoint" />
            <mxPoint x="480" y="230" as="targetPoint" />
          </mxGeometry>
        </mxCell>
        <mxCell id="4clGA9OW3IpD6KlwfDJ9-95" value="" style="endArrow=none;html=1;rounded=0;exitX=0;exitY=0.3333333333333333;exitDx=0;exitDy=0;exitPerimeter=0;entryX=1;entryY=0.5;entryDx=0;entryDy=0;" edge="1" parent="1" source="4clGA9OW3IpD6KlwfDJ9-13" target="4clGA9OW3IpD6KlwfDJ9-78">
          <mxGeometry width="50" height="50" relative="1" as="geometry">
            <mxPoint x="430" y="280" as="sourcePoint" />
            <mxPoint x="480" y="230" as="targetPoint" />
          </mxGeometry>
        </mxCell>
        <mxCell id="4clGA9OW3IpD6KlwfDJ9-96" value="" style="endArrow=none;html=1;rounded=0;entryX=0;entryY=0.3333333333333333;entryDx=0;entryDy=0;entryPerimeter=0;exitX=1;exitY=0;exitDx=0;exitDy=0;" edge="1" parent="1" source="4clGA9OW3IpD6KlwfDJ9-48" target="4clGA9OW3IpD6KlwfDJ9-14">
          <mxGeometry width="50" height="50" relative="1" as="geometry">
            <mxPoint x="430" y="340" as="sourcePoint" />
            <mxPoint x="480" y="290" as="targetPoint" />
          </mxGeometry>
        </mxCell>
        <mxCell id="4clGA9OW3IpD6KlwfDJ9-98" value="&lt;font style=&quot;font-size: 9px;&quot;&gt;View Site Statistics&amp;nbsp;&lt;/font&gt;" style="ellipse;whiteSpace=wrap;html=1;" vertex="1" parent="1">
          <mxGeometry x="620" y="170" width="90" height="40" as="geometry" />
        </mxCell>
        <mxCell id="4clGA9OW3IpD6KlwfDJ9-99" value="Add Hospital" style="ellipse;whiteSpace=wrap;html=1;" vertex="1" parent="1">
          <mxGeometry x="620" y="230" width="90" height="40" as="geometry" />
        </mxCell>
        <mxCell id="4clGA9OW3IpD6KlwfDJ9-100" value="" style="endArrow=none;html=1;rounded=0;entryX=0;entryY=0.3333333333333333;entryDx=0;entryDy=0;entryPerimeter=0;exitX=1;exitY=0.5;exitDx=0;exitDy=0;" edge="1" parent="1" source="4clGA9OW3IpD6KlwfDJ9-98" target="4clGA9OW3IpD6KlwfDJ9-14">
          <mxGeometry width="50" height="50" relative="1" as="geometry">
            <mxPoint x="430" y="240" as="sourcePoint" />
            <mxPoint x="480" y="190" as="targetPoint" />
          </mxGeometry>
        </mxCell>
        <mxCell id="4clGA9OW3IpD6KlwfDJ9-101" value="" style="endArrow=none;html=1;rounded=0;entryX=0;entryY=0.3333333333333333;entryDx=0;entryDy=0;entryPerimeter=0;exitX=1;exitY=0.5;exitDx=0;exitDy=0;" edge="1" parent="1" source="4clGA9OW3IpD6KlwfDJ9-99" target="4clGA9OW3IpD6KlwfDJ9-14">
          <mxGeometry width="50" height="50" relative="1" as="geometry">
            <mxPoint x="430" y="240" as="sourcePoint" />
            <mxPoint x="480" y="190" as="targetPoint" />
          </mxGeometry>
        </mxCell>
        <mxCell id="4clGA9OW3IpD6KlwfDJ9-102" value="View Hospital" style="ellipse;whiteSpace=wrap;html=1;" vertex="1" parent="1">
          <mxGeometry x="620" y="290" width="90" height="40" as="geometry" />
        </mxCell>
        <mxCell id="4clGA9OW3IpD6KlwfDJ9-103" value="Edit" style="ellipse;whiteSpace=wrap;html=1;" vertex="1" parent="1">
          <mxGeometry x="450" y="290" width="90" height="40" as="geometry" />
        </mxCell>
        <mxCell id="4clGA9OW3IpD6KlwfDJ9-104" value="Delete" style="ellipse;whiteSpace=wrap;html=1;" vertex="1" parent="1">
          <mxGeometry x="490" y="250" width="90" height="40" as="geometry" />
        </mxCell>
        <mxCell id="4clGA9OW3IpD6KlwfDJ9-106" value="" style="html=1;labelBackgroundColor=#ffffff;startArrow=none;startFill=0;startSize=6;endArrow=classic;endFill=1;endSize=6;jettySize=auto;orthogonalLoop=1;strokeWidth=1;dashed=1;fontSize=14;rounded=0;entryX=0;entryY=0.5;entryDx=0;entryDy=0;exitX=1;exitY=0.5;exitDx=0;exitDy=0;" edge="1" parent="1" source="4clGA9OW3IpD6KlwfDJ9-103" target="4clGA9OW3IpD6KlwfDJ9-102">
          <mxGeometry width="60" height="60" relative="1" as="geometry">
            <mxPoint x="360" y="230" as="sourcePoint" />
            <mxPoint x="290" y="230" as="targetPoint" />
          </mxGeometry>
        </mxCell>
        <mxCell id="4clGA9OW3IpD6KlwfDJ9-107" value="&lt;font style=&quot;font-size: 8px;&quot;&gt;Extend&lt;/font&gt;" style="edgeLabel;html=1;align=center;verticalAlign=middle;resizable=0;points=[];" vertex="1" connectable="0" parent="4clGA9OW3IpD6KlwfDJ9-106">
          <mxGeometry x="-0.0549" y="-2" relative="1" as="geometry">
            <mxPoint as="offset" />
          </mxGeometry>
        </mxCell>
        <mxCell id="4clGA9OW3IpD6KlwfDJ9-108" value="" style="html=1;labelBackgroundColor=#ffffff;startArrow=none;startFill=0;startSize=6;endArrow=classic;endFill=1;endSize=6;jettySize=auto;orthogonalLoop=1;strokeWidth=1;dashed=1;fontSize=14;rounded=0;entryX=0;entryY=0;entryDx=0;entryDy=0;exitX=1;exitY=0.5;exitDx=0;exitDy=0;" edge="1" parent="1" source="4clGA9OW3IpD6KlwfDJ9-104" target="4clGA9OW3IpD6KlwfDJ9-102">
          <mxGeometry width="60" height="60" relative="1" as="geometry">
            <mxPoint x="370" y="240" as="sourcePoint" />
            <mxPoint x="300" y="240" as="targetPoint" />
          </mxGeometry>
        </mxCell>
        <mxCell id="4clGA9OW3IpD6KlwfDJ9-109" value="&lt;font style=&quot;font-size: 8px;&quot;&gt;Extend&lt;/font&gt;" style="edgeLabel;html=1;align=center;verticalAlign=middle;resizable=0;points=[];" vertex="1" connectable="0" parent="4clGA9OW3IpD6KlwfDJ9-108">
          <mxGeometry x="-0.0549" y="-2" relative="1" as="geometry">
            <mxPoint as="offset" />
          </mxGeometry>
        </mxCell>
        <mxCell id="4clGA9OW3IpD6KlwfDJ9-112" value="&lt;font style=&quot;font-size: 9px;&quot;&gt;View Donation Request&lt;/font&gt;" style="ellipse;whiteSpace=wrap;html=1;" vertex="1" parent="1">
          <mxGeometry x="620" y="350" width="90" height="40" as="geometry" />
        </mxCell>
        <mxCell id="4clGA9OW3IpD6KlwfDJ9-113" value="View Users" style="ellipse;whiteSpace=wrap;html=1;" vertex="1" parent="1">
          <mxGeometry x="620" y="410" width="90" height="40" as="geometry" />
        </mxCell>
        <mxCell id="4clGA9OW3IpD6KlwfDJ9-114" value="Delete User" style="ellipse;whiteSpace=wrap;html=1;" vertex="1" parent="1">
          <mxGeometry x="450" y="410" width="90" height="40" as="geometry" />
        </mxCell>
        <mxCell id="4clGA9OW3IpD6KlwfDJ9-115" value="" style="html=1;labelBackgroundColor=#ffffff;startArrow=none;startFill=0;startSize=6;endArrow=classic;endFill=1;endSize=6;jettySize=auto;orthogonalLoop=1;strokeWidth=1;dashed=1;fontSize=14;rounded=0;entryX=0;entryY=0.5;entryDx=0;entryDy=0;exitX=1;exitY=0.5;exitDx=0;exitDy=0;" edge="1" parent="1" source="4clGA9OW3IpD6KlwfDJ9-114" target="4clGA9OW3IpD6KlwfDJ9-113">
          <mxGeometry width="60" height="60" relative="1" as="geometry">
            <mxPoint x="550" y="260" as="sourcePoint" />
            <mxPoint x="630" y="260" as="targetPoint" />
          </mxGeometry>
        </mxCell>
        <mxCell id="4clGA9OW3IpD6KlwfDJ9-116" value="&lt;font style=&quot;font-size: 8px;&quot;&gt;Extend&lt;/font&gt;" style="edgeLabel;html=1;align=center;verticalAlign=middle;resizable=0;points=[];" vertex="1" connectable="0" parent="4clGA9OW3IpD6KlwfDJ9-115">
          <mxGeometry x="-0.0549" y="-2" relative="1" as="geometry">
            <mxPoint as="offset" />
          </mxGeometry>
        </mxCell>
        <mxCell id="4clGA9OW3IpD6KlwfDJ9-117" value="" style="endArrow=none;html=1;rounded=0;exitX=1;exitY=0.5;exitDx=0;exitDy=0;entryX=0;entryY=0.3333333333333333;entryDx=0;entryDy=0;entryPerimeter=0;" edge="1" parent="1" source="4clGA9OW3IpD6KlwfDJ9-47" target="4clGA9OW3IpD6KlwfDJ9-14">
          <mxGeometry width="50" height="50" relative="1" as="geometry">
            <mxPoint x="430" y="190" as="sourcePoint" />
            <mxPoint x="480" y="140" as="targetPoint" />
          </mxGeometry>
        </mxCell>
        <mxCell id="4clGA9OW3IpD6KlwfDJ9-118" value="Logout" style="ellipse;whiteSpace=wrap;html=1;" vertex="1" parent="1">
          <mxGeometry x="620" y="630" width="90" height="40" as="geometry" />
        </mxCell>
        <mxCell id="4clGA9OW3IpD6KlwfDJ9-119" value="" style="endArrow=none;html=1;rounded=0;exitX=0;exitY=0.3333333333333333;exitDx=0;exitDy=0;exitPerimeter=0;entryX=1;entryY=0.5;entryDx=0;entryDy=0;" edge="1" parent="1" source="4clGA9OW3IpD6KlwfDJ9-13" target="4clGA9OW3IpD6KlwfDJ9-118">
          <mxGeometry width="50" height="50" relative="1" as="geometry">
            <mxPoint x="430" y="500" as="sourcePoint" />
            <mxPoint x="480" y="450" as="targetPoint" />
          </mxGeometry>
        </mxCell>
        <mxCell id="4clGA9OW3IpD6KlwfDJ9-120" value="" style="endArrow=none;html=1;rounded=0;exitX=0;exitY=0.3333333333333333;exitDx=0;exitDy=0;exitPerimeter=0;entryX=1;entryY=0.5;entryDx=0;entryDy=0;" edge="1" parent="1" source="4clGA9OW3IpD6KlwfDJ9-14" target="4clGA9OW3IpD6KlwfDJ9-102">
          <mxGeometry width="50" height="50" relative="1" as="geometry">
            <mxPoint x="430" y="270" as="sourcePoint" />
            <mxPoint x="480" y="220" as="targetPoint" />
          </mxGeometry>
        </mxCell>
        <mxCell id="4clGA9OW3IpD6KlwfDJ9-122" value="" style="endArrow=none;html=1;rounded=0;entryX=0;entryY=0.3333333333333333;entryDx=0;entryDy=0;entryPerimeter=0;exitX=1;exitY=0.5;exitDx=0;exitDy=0;" edge="1" parent="1" source="4clGA9OW3IpD6KlwfDJ9-112" target="4clGA9OW3IpD6KlwfDJ9-14">
          <mxGeometry width="50" height="50" relative="1" as="geometry">
            <mxPoint x="430" y="240" as="sourcePoint" />
            <mxPoint x="480" y="190" as="targetPoint" />
          </mxGeometry>
        </mxCell>
        <mxCell id="4clGA9OW3IpD6KlwfDJ9-123" value="" style="endArrow=none;html=1;rounded=0;entryX=0;entryY=0.3333333333333333;entryDx=0;entryDy=0;entryPerimeter=0;exitX=1;exitY=0.5;exitDx=0;exitDy=0;" edge="1" parent="1" source="4clGA9OW3IpD6KlwfDJ9-113" target="4clGA9OW3IpD6KlwfDJ9-14">
          <mxGeometry width="50" height="50" relative="1" as="geometry">
            <mxPoint x="430" y="240" as="sourcePoint" />
            <mxPoint x="480" y="190" as="targetPoint" />
          </mxGeometry>
        </mxCell>
      </root>
    </mxGraphModel>
  </diagram>
</mxfile>
